<svg width="952" height="484" viewBox="0 0 952 484" fill="none" xmlns="http://www.w3.org/2000/svg">
<path d="M19.1761 335.864V287.426L140.625 96.0909H182.386V163.136H157.67L81.108 284.301V286.574H253.693V335.864H19.1761ZM158.807 387V321.091L159.943 299.642V96.0909H217.614V387H158.807Z" fill="white"/>
<path d="M698.652 335.864V287.426L820.101 96.0909H861.862V163.136H837.146L760.584 284.301V286.574H933.169V335.864H698.652ZM838.282 387V321.091L839.419 299.642V96.0909H897.089V387H838.282Z" fill="white"/>
<path d="M475.71 290.249C453.004 290.249 434.064 274.143 429.567 252.743H354.031C359.37 314.972 411.47 363.798 474.923 363.798C538.375 363.798 590.531 314.972 595.814 252.743H521.852C517.356 274.199 498.415 290.249 475.71 290.249Z" fill="white"/>
<path d="M502.687 360.644C553.044 348.818 591.318 305.623 595.814 252.743H566.027C563.048 300.724 537.925 341.384 502.687 360.644Z" fill="#DFDFDF"/>
<path d="M503.53 243C503.473 243 503.473 243 503.53 243C503.473 239.565 502.855 236.298 501.731 233.257C497.797 222.67 487.624 215.18 475.709 215.18C463.794 215.18 453.622 222.726 449.688 233.257C448.564 236.298 447.945 239.565 447.945 243H448.002C448.002 246.435 448.62 249.702 449.744 252.743C453.678 263.33 463.851 270.82 475.766 270.82C487.68 270.82 497.853 263.274 501.787 252.743C502.911 249.758 503.53 246.435 503.53 243Z" fill="white"/>
<path d="M475.765 195.807C498.471 195.807 517.411 211.914 521.908 233.314H597.444C592.104 171.028 540.005 122.202 476.496 122.202C412.987 122.202 360.944 171.028 355.604 233.257H429.623C434.119 211.857 453.06 195.807 475.765 195.807Z" fill="#FF1C1C"/>
<path d="M566.027 233.257H597.388C592.779 179.476 553.213 135.662 501.562 124.793C537.42 143.771 562.992 184.826 566.027 233.257Z" fill="#DF1818"/>
<path d="M476.497 122.202C540.005 122.202 592.105 171.028 597.388 233.257H521.852C517.356 211.857 498.416 195.751 475.71 195.751C453.004 195.751 434.064 211.857 429.567 233.257H355.605C360.944 171.028 413.044 122.202 476.497 122.202ZM501.731 233.257C502.856 236.298 503.474 239.565 503.474 243H503.53C503.53 246.435 502.912 249.702 501.788 252.743C497.854 263.33 487.681 270.82 475.766 270.82C463.851 270.82 453.678 263.274 449.744 252.743C448.62 249.702 448.002 246.435 448.002 243H447.946C447.946 239.565 448.564 236.298 449.688 233.257C453.622 222.67 463.795 215.18 475.71 215.18C487.625 215.18 497.797 222.726 501.731 233.257ZM474.923 363.854C411.414 363.854 359.314 315.028 354.031 252.799H429.567C434.064 274.199 453.004 290.305 475.71 290.305C498.416 290.305 517.356 274.199 521.852 252.799H595.871C590.531 314.972 538.432 363.854 474.923 363.854ZM475.71 99C396.352 99 332 163.482 332 243C332 322.518 396.352 387 475.71 387C555.068 387 619.476 322.574 619.476 243C619.476 163.425 555.124 99 475.71 99Z" fill="black"/>
</svg>
