<svg width="765" height="104" viewBox="0 0 765 104" fill="none" xmlns="http://www.w3.org/2000/svg">
<path d="M394.215 61.8715C389.125 61.8715 384.879 58.261 383.871 53.4639H366.939C368.136 67.4135 379.815 78.3587 394.039 78.3587C408.262 78.3587 419.954 67.4135 421.138 53.4639H404.558C403.551 58.2737 399.305 61.8715 394.215 61.8715Z" fill="white"/>
<path d="M400.262 77.6517C411.551 75.0006 420.13 65.3179 421.138 53.4639H414.461C413.793 64.2196 408.162 73.3343 400.262 77.6517Z" fill="#DFDFDF"/>
<path d="M400.451 51.2799C400.439 51.2799 400.439 51.2799 400.451 51.2799C400.439 50.5098 400.3 49.7776 400.048 49.0959C399.166 46.7226 396.886 45.0436 394.215 45.0436C391.544 45.0436 389.264 46.7352 388.382 49.0959C388.13 49.7776 387.991 50.5098 387.991 51.2799H388.004C388.004 52.05 388.142 52.7822 388.394 53.4639C389.276 55.8372 391.557 57.5162 394.227 57.5162C396.898 57.5162 399.179 55.8246 400.061 53.4639C400.313 52.7948 400.451 52.05 400.451 51.2799Z" fill="white"/>
<path d="M394.228 40.7009C399.317 40.7009 403.563 44.3114 404.571 49.1086H421.504C420.307 35.1463 408.628 24.2012 394.391 24.2012C380.155 24.2012 368.488 35.1463 367.292 49.096H383.884C384.892 44.2988 389.138 40.7009 394.228 40.7009Z" fill="#FF1C1C"/>
<path d="M414.461 49.096H421.491C420.458 37.0399 411.588 27.2183 400.01 24.7819C408.048 29.0362 413.781 38.2392 414.461 49.096Z" fill="#DF1818"/>
<path d="M394.391 24.2011C408.628 24.2011 420.307 35.1463 421.491 49.096H404.558C403.55 44.2988 399.305 40.6883 394.215 40.6883C389.125 40.6883 384.879 44.2988 383.871 49.096H367.291C368.488 35.1463 380.167 24.2011 394.391 24.2011ZM400.048 49.096C400.3 49.7777 400.439 50.5099 400.439 51.2799H400.451C400.451 52.05 400.313 52.7822 400.061 53.4639C399.179 55.8372 396.898 57.5163 394.227 57.5163C391.557 57.5163 389.276 55.8246 388.394 53.4639C388.142 52.7822 388.004 52.05 388.004 51.2799H387.991C387.991 50.5099 388.13 49.7777 388.382 49.096C389.264 46.7226 391.544 45.0436 394.215 45.0436C396.886 45.0436 399.166 46.7352 400.048 49.096ZM394.038 78.3713C379.802 78.3713 368.123 67.4262 366.939 53.4765H383.871C384.879 58.2737 389.125 61.8842 394.215 61.8842C399.305 61.8842 403.55 58.2737 404.558 53.4765H421.151C419.954 67.4136 408.275 78.3713 394.038 78.3713ZM394.215 19C376.426 19 362 33.4546 362 51.2799C362 69.1052 376.426 83.5599 394.215 83.5599C412.004 83.5599 426.442 69.1178 426.442 51.2799C426.442 33.442 412.017 19 394.215 19Z" fill="black"/>
<path d="M665.215 61.8715C660.125 61.8715 655.879 58.261 654.871 53.4639H637.939C639.136 67.4135 650.815 78.3587 665.039 78.3587C679.262 78.3587 690.954 67.4135 692.138 53.4639H675.558C674.551 58.2737 670.305 61.8715 665.215 61.8715Z" fill="white"/>
<path d="M671.262 77.6517C682.551 75.0006 691.13 65.3179 692.138 53.4639H685.461C684.793 64.2196 679.162 73.3343 671.262 77.6517Z" fill="#DFDFDF"/>
<path d="M671.451 51.2799C671.439 51.2799 671.439 51.2799 671.451 51.2799C671.439 50.5098 671.3 49.7776 671.048 49.0959C670.166 46.7226 667.886 45.0436 665.215 45.0436C662.544 45.0436 660.264 46.7352 659.382 49.0959C659.13 49.7776 658.991 50.5098 658.991 51.2799H659.004C659.004 52.05 659.142 52.7822 659.394 53.4639C660.276 55.8372 662.557 57.5162 665.228 57.5162C667.898 57.5162 670.179 55.8246 671.061 53.4639C671.313 52.7948 671.451 52.05 671.451 51.2799Z" fill="white"/>
<path d="M665.228 40.7009C670.317 40.7009 674.563 44.3114 675.571 49.1086H692.504C691.307 35.1463 679.628 24.2012 665.391 24.2012C651.155 24.2012 639.488 35.1463 638.292 49.096H654.884C655.892 44.2988 660.138 40.7009 665.228 40.7009Z" fill="#FF1C1C"/>
<path d="M685.461 49.096H692.491C691.458 37.0399 682.588 27.2183 671.01 24.7819C679.048 29.0362 684.781 38.2392 685.461 49.096Z" fill="#DF1818"/>
<path d="M665.391 24.2011C679.628 24.2011 691.307 35.1463 692.491 49.096H675.558C674.55 44.2988 670.305 40.6883 665.215 40.6883C660.125 40.6883 655.879 44.2988 654.871 49.096H638.291C639.488 35.1463 651.167 24.2011 665.391 24.2011ZM671.048 49.096C671.3 49.7777 671.439 50.5099 671.439 51.2799H671.451C671.451 52.05 671.313 52.7822 671.061 53.4639C670.179 55.8372 667.898 57.5163 665.227 57.5163C662.557 57.5163 660.276 55.8246 659.394 53.4639C659.142 52.7822 659.004 52.05 659.004 51.2799H658.991C658.991 50.5099 659.13 49.7777 659.382 49.096C660.264 46.7226 662.544 45.0436 665.215 45.0436C667.886 45.0436 670.166 46.7352 671.048 49.096ZM665.038 78.3713C650.802 78.3713 639.123 67.4262 637.939 53.4765H654.871C655.879 58.2737 660.125 61.8842 665.215 61.8842C670.305 61.8842 674.55 58.2737 675.558 53.4765H692.151C690.954 67.4136 679.275 78.3713 665.038 78.3713ZM665.215 19C647.426 19 633 33.4546 633 51.2799C633 69.1052 647.426 83.5599 665.215 83.5599C683.004 83.5599 697.442 69.1178 697.442 51.2799C697.442 33.442 683.017 19 665.215 19Z" fill="black"/>
<path d="M16.0281 82H2.02237L23.3629 20.1818H40.206L61.5163 82H47.5107L32.0259 34.3082H31.543L16.0281 82ZM15.1527 57.7013H48.2351V67.9038H15.1527V57.7013ZM120.663 20.1818V82H109.374L82.4796 43.092H82.0268V82H68.9569V20.1818H80.427L107.11 59.0597H107.654V20.1818H120.663ZM172.453 40.1641C172.03 38.6951 171.436 37.3971 170.672 36.2702C169.907 35.1232 168.971 34.1573 167.864 33.3725C166.778 32.5676 165.53 31.9538 164.122 31.5312C162.733 31.1087 161.194 30.8974 159.503 30.8974C156.344 30.8974 153.567 31.6822 151.172 33.2518C148.798 34.8214 146.946 37.1053 145.618 40.1037C144.29 43.0819 143.626 46.7242 143.626 51.0305C143.626 55.3369 144.28 58.9993 145.588 62.0178C146.896 65.0362 148.747 67.3403 151.142 68.93C153.537 70.4996 156.364 71.2844 159.624 71.2844C162.582 71.2844 165.108 70.7612 167.2 69.7148C169.313 68.6483 170.923 67.1491 172.03 65.2173C173.157 63.2855 173.72 61.0015 173.72 58.3654L176.377 58.7578H160.439V48.9176H186.307V56.7053C186.307 62.1385 185.16 66.8071 182.866 70.7109C180.572 74.5947 177.413 77.593 173.388 79.706C169.364 81.7988 164.755 82.8452 159.564 82.8452C153.768 82.8452 148.677 81.5674 144.29 79.0117C139.903 76.436 136.482 72.7836 134.027 68.0547C131.593 63.3056 130.375 57.6712 130.375 51.1513C130.375 46.1406 131.1 41.6733 132.548 37.7493C134.017 33.8052 136.07 30.4647 138.706 27.728C141.342 24.9912 144.411 22.9085 147.912 21.4798C151.414 20.051 155.207 19.3366 159.292 19.3366C162.793 19.3366 166.053 19.8498 169.072 20.8761C172.09 21.8822 174.767 23.311 177.101 25.1623C179.455 27.0136 181.377 29.2171 182.866 31.7727C184.355 34.3082 185.311 37.1053 185.734 40.1641H172.453ZM234.308 20.1818H247.378V60.3274C247.378 64.835 246.302 68.7791 244.149 72.1598C242.016 75.5405 239.027 78.1766 235.184 80.0682C231.34 81.9396 226.863 82.8754 221.752 82.8754C216.62 82.8754 212.133 81.9396 208.289 80.0682C204.446 78.1766 201.457 75.5405 199.324 72.1598C197.191 68.7791 196.125 64.835 196.125 60.3274V20.1818H209.195V59.2106C209.195 61.565 209.708 63.6578 210.734 65.489C211.781 67.3202 213.25 68.759 215.141 69.8054C217.033 70.8518 219.236 71.375 221.752 71.375C224.287 71.375 226.491 70.8518 228.362 69.8054C230.254 68.759 231.713 67.3202 232.739 65.489C233.785 63.6578 234.308 61.565 234.308 59.2106V20.1818ZM258.132 82V20.1818H271.202V71.2241H297.704V82H258.132Z" fill="white"/>
<path d="M306.359 82V20.1818H330.748C335.437 20.1818 339.432 21.0773 342.732 22.8683C346.032 24.6391 348.547 27.1042 350.278 30.2635C352.029 33.4027 352.904 37.0249 352.904 41.13C352.904 45.2351 352.019 48.8572 350.248 51.9964C348.477 55.1357 345.911 57.5806 342.551 59.3313C339.21 61.082 335.165 61.9574 330.416 61.9574H314.871V51.4833H328.303C330.819 51.4833 332.892 51.0507 334.521 50.1854C336.172 49.3 337.399 48.0825 338.204 46.533C339.029 44.9634 339.442 43.1624 339.442 41.13C339.442 39.0774 339.029 37.2865 338.204 35.7571C337.399 34.2076 336.172 33.0103 334.521 32.1651C332.871 31.2998 330.779 30.8672 328.243 30.8672H319.429V82H306.359ZM440.085 82V20.1818H453.155V47.4386H453.97L476.216 20.1818H491.882L468.941 47.8611L492.153 82H476.518L459.584 56.5845L453.155 64.4325V82H440.085ZM498.688 82V20.1818H540.343V30.9577H511.758V45.6879H538.2V56.4638H511.758V71.2241H540.464V82H498.688ZM550.734 20.1818H566.853L583.877 61.7159H584.601L601.626 20.1818H617.744V82H605.067V41.7638H604.553L588.556 81.6982H579.923L563.925 41.6129H563.412V82H550.734V20.1818ZM758.91 20.1818V82H747.621L720.727 43.092H720.274V82H707.204V20.1818H718.674L745.357 59.0597H745.901V20.1818H758.91Z" fill="black"/>
</svg>
