<svg width="586" height="146" viewBox="0 0 586 146" fill="none" xmlns="http://www.w3.org/2000/svg">
<g filter="url(#filter0_d_9_2)">
<line x1="4" y1="73.5" x2="184" y2="73.5" stroke="black"/>
</g>
<g filter="url(#filter1_d_9_2)">
<line x1="402" y1="73.5" x2="582" y2="73.5" stroke="black"/>
</g>
<path d="M292.665 96.5276C281.279 96.5276 271.782 88.4511 269.527 77.7201H231.65C234.327 108.925 260.452 133.408 292.271 133.408C324.089 133.408 350.242 108.925 352.891 77.7201H315.803C313.548 88.4794 304.051 96.5276 292.665 96.5276Z" fill="white"/>
<path d="M306.193 131.827C331.444 125.897 350.637 104.237 352.891 77.7201H337.955C336.461 101.78 323.863 122.169 306.193 131.827Z" fill="#DFDFDF"/>
<path d="M306.616 72.8347C306.587 72.8347 306.587 72.8347 306.616 72.8347C306.587 71.1121 306.277 69.4742 305.714 67.9492C303.741 62.6402 298.64 58.8843 292.665 58.8843C286.69 58.8843 281.589 62.6684 279.617 67.9492C279.053 69.4742 278.743 71.1121 278.743 72.8347H278.771C278.771 74.5573 279.081 76.1952 279.645 77.7201C281.618 83.0291 286.719 86.785 292.693 86.785C298.668 86.785 303.769 83.0009 305.742 77.7201C306.306 76.2234 306.616 74.5573 306.616 72.8347Z" fill="white"/>
<path d="M292.693 49.1699C304.079 49.1699 313.577 57.2464 315.831 67.9774H353.709C351.031 36.7445 324.906 12.2608 293.06 12.2608C261.213 12.2608 235.116 36.7445 232.439 67.9492H269.555C271.81 57.2182 281.308 49.1699 292.693 49.1699Z" fill="#FF1C1C"/>
<path d="M337.955 67.9492H353.681C351.37 40.9804 331.529 19.0101 305.629 13.5598C323.61 23.0766 336.433 43.6632 337.955 67.9492Z" fill="#DF1818"/>
<path d="M293.06 12.2608C324.906 12.2608 351.031 36.7445 353.68 67.9492H315.803C313.548 57.2182 304.051 49.1417 292.665 49.1417C281.279 49.1417 271.782 57.2182 269.527 67.9492H232.439C235.116 36.7445 261.242 12.2608 293.06 12.2608ZM305.714 67.9492C306.277 69.4741 306.587 71.112 306.587 72.8346H306.616C306.616 74.5573 306.306 76.1952 305.742 77.7201C303.769 83.0291 298.668 86.785 292.693 86.785C286.719 86.785 281.618 83.0009 279.645 77.7201C279.081 76.1952 278.771 74.5573 278.771 72.8346H278.743C278.743 71.112 279.053 69.4741 279.617 67.9492C281.589 62.6402 286.69 58.8843 292.665 58.8843C298.64 58.8843 303.741 62.6684 305.714 67.9492ZM292.271 133.437C260.424 133.437 234.299 108.953 231.65 77.7483H269.527C271.782 88.4794 281.279 96.5559 292.665 96.5559C304.051 96.5559 313.548 88.4794 315.803 77.7483H352.92C350.242 108.925 324.117 133.437 292.271 133.437ZM292.665 0.626129C252.871 0.626129 220.602 32.9604 220.602 72.8346C220.602 112.709 252.871 145.043 292.665 145.043C332.459 145.043 364.756 112.737 364.756 72.8346C364.756 32.9322 332.487 0.626129 292.665 0.626129Z" fill="black"/>
<defs>
<filter id="filter0_d_9_2" x="0" y="73" width="188" height="9" filterUnits="userSpaceOnUse" color-interpolation-filters="sRGB">
<feFlood flood-opacity="0" result="BackgroundImageFix"/>
<feColorMatrix in="SourceAlpha" type="matrix" values="0 0 0 0 0 0 0 0 0 0 0 0 0 0 0 0 0 0 127 0" result="hardAlpha"/>
<feOffset dy="4"/>
<feGaussianBlur stdDeviation="2"/>
<feComposite in2="hardAlpha" operator="out"/>
<feColorMatrix type="matrix" values="0 0 0 0 0 0 0 0 0 0 0 0 0 0 0 0 0 0 0.25 0"/>
<feBlend mode="normal" in2="BackgroundImageFix" result="effect1_dropShadow_9_2"/>
<feBlend mode="normal" in="SourceGraphic" in2="effect1_dropShadow_9_2" result="shape"/>
</filter>
<filter id="filter1_d_9_2" x="398" y="73" width="188" height="9" filterUnits="userSpaceOnUse" color-interpolation-filters="sRGB">
<feFlood flood-opacity="0" result="BackgroundImageFix"/>
<feColorMatrix in="SourceAlpha" type="matrix" values="0 0 0 0 0 0 0 0 0 0 0 0 0 0 0 0 0 0 127 0" result="hardAlpha"/>
<feOffset dy="4"/>
<feGaussianBlur stdDeviation="2"/>
<feComposite in2="hardAlpha" operator="out"/>
<feColorMatrix type="matrix" values="0 0 0 0 0 0 0 0 0 0 0 0 0 0 0 0 0 0 0.25 0"/>
<feBlend mode="normal" in2="BackgroundImageFix" result="effect1_dropShadow_9_2"/>
<feBlend mode="normal" in="SourceGraphic" in2="effect1_dropShadow_9_2" result="shape"/>
</filter>
</defs>
</svg>
