<svg width="667" height="103" viewBox="0 0 667 103" fill="none" xmlns="http://www.w3.org/2000/svg">
<path d="M5.37287 82V20.1818H29.7621C34.4508 20.1818 38.4452 21.0773 41.7454 22.8683C45.0456 24.6391 47.561 27.1042 49.2915 30.2635C51.0423 33.4027 51.9176 37.0249 51.9176 41.13C51.9176 45.2351 51.0322 48.8572 49.2614 51.9964C47.4905 55.1357 44.9248 57.5806 41.5643 59.3313C38.2238 61.082 34.1791 61.9574 29.43 61.9574H13.8849V51.4833H27.3171C29.8325 51.4833 31.9052 51.0507 33.5352 50.1854C35.1853 49.3 36.4128 48.0825 37.2177 46.533C38.0427 44.9634 38.4553 43.1624 38.4553 41.13C38.4553 39.0774 38.0427 37.2865 37.2177 35.7571C36.4128 34.2076 35.1853 33.0103 33.5352 32.1651C31.8851 31.2998 29.7923 30.8672 27.2567 30.8672H18.4428V82H5.37287ZM139.098 82V20.1818H152.168V47.4386H152.983L175.229 20.1818H190.895L167.955 47.8611L191.167 82H175.531L158.598 56.5845L152.168 64.4325V82H139.098ZM197.702 82V20.1818H239.357V30.9577H210.772V45.6879H237.214V56.4638H210.772V71.2241H239.478V82H197.702Z" fill="black"/>
<path d="M260.403 82H246.397L267.738 20.1818H284.581L305.891 82H291.886L276.401 34.3082H275.918L260.403 82ZM259.528 57.7013H292.61V67.9038H259.528V57.7013ZM365.038 20.1818V82H353.749L326.855 43.092H326.402V82H313.332V20.1818H324.802L351.485 59.0597H352.029V20.1818H365.038ZM416.828 40.1641C416.405 38.6951 415.811 37.3971 415.047 36.2702C414.282 35.1232 413.346 34.1573 412.239 33.3725C411.153 32.5676 409.905 31.9538 408.497 31.5312C407.108 31.1087 405.569 30.8974 403.878 30.8974C400.719 30.8974 397.942 31.6822 395.547 33.2518C393.173 34.8214 391.321 37.1053 389.993 40.1037C388.665 43.0819 388.001 46.7242 388.001 51.0305C388.001 55.3369 388.655 58.9993 389.963 62.0178C391.271 65.0362 393.122 67.3403 395.517 68.93C397.912 70.4996 400.739 71.2844 403.999 71.2844C406.957 71.2844 409.483 70.7612 411.575 69.7148C413.688 68.6483 415.298 67.1491 416.405 65.2173C417.532 63.2855 418.095 61.0015 418.095 58.3654L420.752 58.7578H404.814V48.9176H430.682V56.7053C430.682 62.1385 429.535 66.8071 427.241 70.7109C424.947 74.5947 421.788 77.593 417.763 79.706C413.739 81.7988 409.13 82.8452 403.939 82.8452C398.143 82.8452 393.052 81.5674 388.665 79.0117C384.278 76.436 380.857 72.7836 378.402 68.0547C375.968 63.3056 374.75 57.6712 374.75 51.1513C374.75 46.1406 375.475 41.6733 376.923 37.7493C378.392 33.8052 380.445 30.4647 383.081 27.728C385.717 24.9912 388.786 22.9085 392.287 21.4798C395.789 20.051 399.582 19.3366 403.667 19.3366C407.168 19.3366 410.428 19.8498 413.447 20.8761C416.465 21.8822 419.142 23.311 421.476 25.1623C423.83 27.0136 425.752 29.2171 427.241 31.7727C428.73 34.3082 429.686 37.1053 430.109 40.1641H416.828ZM478.683 20.1818H491.753V60.3274C491.753 64.835 490.677 68.7791 488.524 72.1598C486.391 75.5405 483.402 78.1766 479.559 80.0682C475.715 81.9396 471.238 82.8754 466.127 82.8754C460.995 82.8754 456.508 81.9396 452.664 80.0682C448.821 78.1766 445.832 75.5405 443.699 72.1598C441.566 68.7791 440.5 64.835 440.5 60.3274V20.1818H453.57V59.2106C453.57 61.565 454.083 63.6578 455.109 65.489C456.156 67.3202 457.625 68.759 459.516 69.8054C461.408 70.8518 463.611 71.375 466.127 71.375C468.662 71.375 470.866 70.8518 472.737 69.8054C474.629 68.759 476.088 67.3202 477.114 65.489C478.16 63.6578 478.683 61.565 478.683 59.2106V20.1818ZM502.507 82V20.1818H515.577V71.2241H542.079V82H502.507ZM562.967 82H548.961L570.301 20.1818H587.144L608.455 82H594.449L578.964 34.3082H578.481L562.967 82ZM562.091 57.7013H595.174V67.9038H562.091V57.7013ZM615.895 82V20.1818H640.285C644.953 20.1818 648.937 21.0169 652.238 22.6871C655.558 24.3372 658.083 26.6816 659.814 29.7202C661.565 32.7386 662.44 36.2904 662.44 40.3754C662.44 44.4805 661.555 48.0121 659.784 50.9702C658.013 53.9081 655.447 56.1619 652.087 57.7315C648.746 59.3011 644.702 60.0859 639.953 60.0859H623.623V49.5817H637.84C640.335 49.5817 642.408 49.2396 644.058 48.5554C645.708 47.8712 646.935 46.8449 647.74 45.4766C648.565 44.1082 648.978 42.4078 648.978 40.3754C648.978 38.3228 648.565 36.5922 647.74 35.1836C646.935 33.775 645.698 32.7084 644.027 31.984C642.377 31.2395 640.295 30.8672 637.779 30.8672H628.965V82H615.895ZM649.28 53.8679L664.644 82H650.215L635.183 53.8679H649.28Z" fill="white"/>
<path d="M92.4932 62.8201C87.0434 62.8201 82.4973 58.9613 81.4182 53.8342H63.288C64.5695 68.7433 77.0745 80.4412 92.3044 80.4412C107.534 80.4412 120.053 68.7433 121.321 53.8342H103.568C102.489 58.9748 97.9431 62.8201 92.4932 62.8201Z" fill="white"/>
<path d="M98.9684 79.6856C111.055 76.8522 120.242 66.5036 121.321 53.8342H114.171C113.456 65.3297 107.426 75.0712 98.9684 79.6856Z" fill="#DFDFDF"/>
<path d="M99.1707 51.4999C99.1572 51.4999 99.1572 51.4999 99.1707 51.4999C99.1572 50.6769 99.0088 49.8944 98.739 49.1658C97.7947 46.6292 95.3531 44.8347 92.4933 44.8347C89.6335 44.8347 87.1918 46.6427 86.2475 49.1658C85.9777 49.8944 85.8293 50.6769 85.8293 51.4999H85.8428C85.8428 52.323 85.9912 53.1055 86.261 53.8341C87.2053 56.3707 89.6469 58.1652 92.5068 58.1652C95.3666 58.1652 97.8082 56.3572 98.7525 53.8341C99.0223 53.119 99.1707 52.323 99.1707 51.4999Z" fill="white"/>
<path d="M92.5067 40.1934C97.9566 40.1934 102.503 44.0522 103.582 49.1793H121.712C120.43 34.2567 107.925 22.5588 92.6821 22.5588C77.4387 22.5588 64.9472 34.2567 63.6656 49.1658H81.4316C82.5108 44.0387 87.0568 40.1934 92.5067 40.1934Z" fill="#FF1C1C"/>
<path d="M114.171 49.1658H121.699C120.592 36.2805 111.096 25.7835 98.6986 23.1794C107.305 27.7264 113.443 37.5623 114.171 49.1658Z" fill="#DF1818"/>
<path d="M92.6821 22.5589C107.926 22.5589 120.43 34.2567 121.699 49.1658H103.568C102.489 44.0387 97.9431 40.1799 92.4933 40.1799C87.0434 40.1799 82.4974 44.0387 81.4182 49.1658H63.6657C64.9472 34.2567 77.4522 22.5589 92.6821 22.5589ZM98.739 49.1658C99.0088 49.8944 99.1572 50.677 99.1572 51.5H99.1707C99.1707 52.323 99.0223 53.1056 98.7525 53.8342C97.8082 56.3707 95.3666 58.1652 92.5067 58.1652C89.6469 58.1652 87.2053 56.3573 86.261 53.8342C85.9912 53.1056 85.8428 52.323 85.8428 51.5H85.8293C85.8293 50.677 85.9777 49.8944 86.2475 49.1658C87.1918 46.6293 89.6334 44.8348 92.4933 44.8348C95.3531 44.8348 97.7947 46.6427 98.739 49.1658ZM92.3044 80.4546C77.061 80.4546 64.556 68.7567 63.288 53.8477H81.4182C82.4974 58.9748 87.0434 62.8336 92.4933 62.8336C97.9431 62.8336 102.489 58.9748 103.568 53.8477H121.334C120.053 68.7433 107.548 80.4546 92.3044 80.4546ZM92.4933 17C73.4457 17 58 32.4488 58 51.5C58 70.5512 73.4457 86 92.4933 86C111.541 86 127 70.5647 127 51.5C127 32.4353 111.554 17 92.4933 17Z" fill="black"/>
</svg>
